<?xml version="1.0" encoding="UTF-8"?>
<svg version="1.1" xmlns="http://www.w3.org/2000/svg" width="512" height="512">
<path d="M0 0 C16.5 0 33 0 50 0 C50 7.59 50 15.18 50 23 C113.03 23 176.06 23 241 23 C241 30.92 241 38.84 241 47 C248.92 47 256.84 47 265 47 C265 181.64 265 316.28 265 455 C257.08 455 249.16 455 241 455 C241 462.92 241 470.84 241 479 C233.08 479 225.16 479 217 479 C217 486.92 217 494.84 217 503 C90.28 503 -36.44 503 -167 503 C-167 495.08 -167 487.16 -167 479 C-174.92 479 -182.84 479 -191 479 C-191 471.08 -191 463.16 -191 455 C-198.92 455 -206.84 455 -215 455 C-215 320.36 -215 185.72 -215 47 C-207.08 47 -199.16 47 -191 47 C-191 39.08 -191 31.16 -191 23 C-127.97 23 -64.94 23 0 23 C0 15.41 0 7.82 0 0 Z " fill="#FDFEF8" transform="translate(231,0)"/>
<path d="M0 0 C47.19 0 94.38 0 143 0 C143 15.51 143 31.02 143 47 C135.08 47 127.16 47 119 47 C119 70.76 119 94.52 119 119 C111.41 119 103.82 119 96 119 C96 111.08 96 103.16 96 95 C87.75 95 79.5 95 71 95 C71 110.84 71 126.68 71 143 C63.08 143 55.16 143 47 143 C47 158.51 47 174.02 47 190 C39.08 190 31.16 190 23 190 C23 205.84 23 221.68 23 238 C15.08 238 7.16 238 -1 238 C-1 253.84 -1 269.68 -1 286 C-8.59 286 -16.18 286 -24 286 C-24 294.25 -24 302.5 -24 311 C-31.92 311 -39.84 311 -48 311 C-48 334.43 -48 357.86 -48 382 C-32.16 382 -16.32 382 0 382 C0 389.92 0 397.84 0 406 C15.51 406 31.02 406 47 406 C47 413.92 47 421.84 47 430 C86.6 430 126.2 430 167 430 C167 437.59 167 445.18 167 453 C190.43 453 213.86 453 238 453 C238 445.41 238 437.82 238 430 C270.01 430 302.02 430 335 430 C335 422.08 335 414.16 335 406 C342.59 406 350.18 406 358 406 C358 398.08 358 390.16 358 382 C381.43 382 404.86 382 429 382 C429 358.57 429 335.14 429 311 C413.49 311 397.98 311 382 311 C382 295.16 382 279.32 382 263 C374.08 263 366.16 263 358 263 C358 239.24 358 215.48 358 191 C350.41 191 342.82 191 335 191 C335 175.16 335 159.32 335 143 C327.08 143 319.16 143 311 143 C311 127.16 311 111.32 311 95 C295.16 95 279.32 95 263 95 C263 79.16 263 63.32 263 47 C255.08 47 247.16 47 239 47 C239 31.49 239 15.98 239 0 C286.19 0 333.38 0 382 0 C382 7.92 382 15.84 382 24 C389.92 24 397.84 24 406 24 C406 102.54 406 181.08 406 262 C413.92 262 421.84 262 430 262 C430 175.87 430 89.74 430 1 C430.33 1 430.66 1 431 1 C431 134.98 431 268.96 431 407 C423.08 407 415.16 407 407 407 C407 414.92 407 422.84 407 431 C399.08 431 391.16 431 383 431 C383 438.92 383 446.84 383 455 C256.28 455 129.56 455 -1 455 C-1 447.08 -1 439.16 -1 431 C-8.92 431 -16.84 431 -25 431 C-25 423.08 -25 415.16 -25 407 C-32.92 407 -40.84 407 -49 407 C-49.02302145 395.1644951 -49.0411774 383.32900618 -49.05181217 371.49348354 C-49.05692826 365.99182206 -49.06380695 360.49017726 -49.07543945 354.98852539 C-49.13859805 324.31077214 -48.78382046 293.66796983 -48 263 C-40.08 263 -32.16 263 -24 263 C-24 184.13 -24 105.26 -24 24 C-16.08 24 -8.16 24 0 24 C0 16.08 0 8.16 0 0 Z " fill="#212A3F" transform="translate(65,48)"/>
<path d="M0 0 C7.92 0 15.84 0 24 0 C24 47.52 24 95.04 24 144 C31.92 144 39.84 144 48 144 C48 159.51 48 175.02 48 191 C55.59 191 63.18 191 71 191 C71 167.57 71 144.14 71 120 C63.41 120 55.82 120 48 120 C48 96.57 48 73.14 48 49 C55.59 49 63.18 49 71 49 C71 56.59 71 64.18 71 72 C78.92 72 86.84 72 95 72 C95 79.92 95 87.84 95 96 C103.25 96 111.5 96 120 96 C120 103.92 120 111.84 120 120 C127.59 120 135.18 120 143 120 C143 135.84 143 151.68 143 168 C151.25 168 159.5 168 168 168 C168 199.35 168 230.7 168 263 C175.59 263 183.18 263 191 263 C191 278.84 191 294.68 191 311 C183.08 311 175.16 311 167 311 C167 295.49 167 279.98 167 264 C159.41 264 151.82 264 144 264 C144 279.51 144 295.02 144 311 C119.91 311 95.82 311 71 311 C71 295.49 71 279.98 71 264 C63.41 264 55.82 264 48 264 C48 279.51 48 295.02 48 311 C40.08 311 32.16 311 24 311 C24 303.08 24 295.16 24 287 C16.08 287 8.16 287 0 287 C0 294.92 0 302.84 0 311 C-23.76 311 -47.52 311 -72 311 C-72 287.57 -72 264.14 -72 240 C-79.59 240 -87.18 240 -95 240 C-94.96041166 247.52432774 -94.96041166 247.52432774 -94.90991211 255.04858398 C-94.90741455 255.98001221 -94.90491699 256.91144043 -94.90234375 257.87109375 C-94.89710693 258.82943115 -94.89187012 259.78776855 -94.88647461 260.77514648 C-95 263 -95 263 -96 264 C-103.59 264 -111.18 264 -119 264 C-119 279.51 -119 295.02 -119 311 C-127.25 311 -135.5 311 -144 311 C-144.18451025 261.46924829 -144.18451025 261.46924829 -143 240 C-135.41 240 -127.82 240 -120 240 C-120.01160156 236.8134375 -120.02320313 233.626875 -120.03515625 230.34375 C-120.15253422 188.74561592 -120.15253422 188.74561592 -119 168 C-111.41 168 -103.82 168 -96 168 C-96 144.57 -96 121.14 -96 97 C-103.59 97 -111.18 97 -119 97 C-119 112.51 -119 128.02 -119 144 C-126.92 144 -134.84 144 -143 144 C-143 159.84 -143 175.68 -143 192 C-150.92 192 -158.84 192 -167 192 C-167 207.51 -167 223.02 -167 239 C-167.33 239 -167.66 239 -168 239 C-168 223.16 -168 207.32 -168 191 C-160.08 191 -152.16 191 -144 191 C-144 175.16 -144 159.32 -144 143 C-136.08 143 -128.16 143 -120 143 C-120 127.49 -120 111.98 -120 96 C-112.08 96 -104.16 96 -96 96 C-96 80.16 -96 64.32 -96 48 C-87.75 48 -79.5 48 -71 48 C-71 55.92 -71 63.84 -71 72 C-71.33 72 -71.66 72 -72 72 C-72 64.41 -72 56.82 -72 49 C-79.59 49 -87.18 49 -95 49 C-95 64.51 -95 80.02 -95 96 C-87.41 96 -79.82 96 -72 96 C-72 103.92 -72 111.84 -72 120 C-63.75 120 -55.5 120 -47 120 C-47 104.16 -47 88.32 -47 72 C-39.41 72 -31.82 72 -24 72 C-24 56.16 -24 40.32 -24 24 C-16.08 24 -8.16 24 0 24 C0 16.08 0 8.16 0 0 Z " fill="#B4CED5" transform="translate(232,95)"/>
<path d="M0 0 C16.5 0 33 0 50 0 C50 7.59 50 15.18 50 23 C113.03 23 176.06 23 241 23 C241 30.92 241 38.84 241 47 C248.92 47 256.84 47 265 47 C264.67 133.79 264.34 220.58 264 310 C256.08 310 248.16 310 240 310 C240 231.46 240 152.92 240 72 C232.08 72 224.16 72 216 72 C216 64.08 216 56.16 216 48 C168.81 48 121.62 48 73 48 C73 63.51 73 79.02 73 95 C80.92 95 88.84 95 97 95 C97 110.84 97 126.68 97 143 C112.84 143 128.68 143 145 143 C145 158.84 145 174.68 145 191 C152.92 191 160.84 191 169 191 C169 206.84 169 222.68 169 239 C168.34 239.33 167.68 239.66 167 240 C174.92 240 182.84 240 191 240 C191 255.51 191 271.02 191 287 C183.74 287 176.48 287 169 287 C169 279.08 169 271.16 169 263 C160.75 263 152.5 263 144 263 C144 247.16 144 231.32 144 215 C136.41 215 128.82 215 121 215 C121 207.08 121 199.16 121 191 C112.75 191 104.5 191 96 191 C96 183.08 96 175.16 96 167 C88.08 167 80.16 167 72 167 C72 159.41 72 151.82 72 144 C64.41 144 56.82 144 49 144 C49 167.43 49 190.86 49 215 C56.59 215 64.18 215 72 215 C72 238.43 72 261.86 72 286 C64.41 286 56.82 286 49 286 C49 270.49 49 254.98 49 239 C41.08 239 33.16 239 25 239 C25 191.48 25 143.96 25 95 C17.08 95 9.16 95 1 95 C1 102.92 1 110.84 1 119 C-6.92 119 -14.84 119 -23 119 C-23 134.84 -23 150.68 -23 167 C-30.59 167 -38.18 167 -46 167 C-46 182.84 -46 198.68 -46 215 C-54.25 215 -62.5 215 -71 215 C-71 207.08 -71 199.16 -71 191 C-78.59 191 -86.18 191 -94 191 C-94 175.49 -94 159.98 -94 144 C-86.41 144 -78.82 144 -71 144 C-71 151.59 -71 159.18 -71 167 C-63.08 167 -55.16 167 -47 167 C-47 143.24 -47 119.48 -47 95 C-39.08 95 -31.16 95 -23 95 C-23 79.49 -23 63.98 -23 48 C-70.19 48 -117.38 48 -166 48 C-166 55.92 -166 63.84 -166 72 C-173.92 72 -181.84 72 -190 72 C-190 150.87 -190 229.74 -190 311 C-197.92 311 -205.84 311 -214 311 C-214 326.51 -214 342.02 -214 358 C-214.33 358 -214.66 358 -215 358 C-215 255.37 -215 152.74 -215 47 C-207.08 47 -199.16 47 -191 47 C-191 39.08 -191 31.16 -191 23 C-127.97 23 -64.94 23 0 23 C0 15.41 0 7.82 0 0 Z " fill="#B2B6B6" transform="translate(231,0)"/>
<path d="M0 0 C47.19 0 94.38 0 143 0 C143 15.51 143 31.02 143 47 C135.08 47 127.16 47 119 47 C119 70.76 119 94.52 119 119 C111.41 119 103.82 119 96 119 C96 111.08 96 103.16 96 95 C87.75 95 79.5 95 71 95 C71 110.84 71 126.68 71 143 C63.08 143 55.16 143 47 143 C47 158.51 47 174.02 47 190 C39.08 190 31.16 190 23 190 C23 205.84 23 221.68 23 238 C15.08 238 7.16 238 -1 238 C-1 253.84 -1 269.68 -1 286 C-8.92 286 -16.84 286 -25 286 C-25 293.92 -25 301.84 -25 310 C-32.26 310 -39.52 310 -47 310 C-47 294.49 -47 278.98 -47 263 C-39.41 263 -31.82 263 -24 263 C-24 184.13 -24 105.26 -24 24 C-16.08 24 -8.16 24 0 24 C0 16.08 0 8.16 0 0 Z " fill="#1C2237" transform="translate(65,48)"/>
<path d="M0 0 C7.92 0 15.84 0 24 0 C24 23.43 24 46.86 24 71 C16.08 71 8.16 71 0 71 C0 94.76 0 118.52 0 143 C7.92 143 15.84 143 24 143 C24 174.35 24 205.7 24 238 C16.08 238 8.16 238 0 238 C0 253.84 0 269.68 0 286 C-15.84 286 -31.68 286 -48 286 C-48 262.57 -48 239.14 -48 215 C-55.59 215 -63.18 215 -71 215 C-70.96041166 222.52432774 -70.96041166 222.52432774 -70.90991211 230.04858398 C-70.90741455 230.98001221 -70.90491699 231.91144043 -70.90234375 232.87109375 C-70.89710693 233.82943115 -70.89187012 234.78776855 -70.88647461 235.77514648 C-71 238 -71 238 -72 239 C-79.59 239 -87.18 239 -95 239 C-95 254.51 -95 270.02 -95 286 C-103.25 286 -111.5 286 -120 286 C-120.18451025 236.46924829 -120.18451025 236.46924829 -119 215 C-111.41 215 -103.82 215 -96 215 C-96.01160156 211.8134375 -96.02320313 208.626875 -96.03515625 205.34375 C-96.15253422 163.74561592 -96.15253422 163.74561592 -95 143 C-87.41 143 -79.82 143 -72 143 C-72 119.57 -72 96.14 -72 72 C-79.59 72 -87.18 72 -95 72 C-95 87.51 -95 103.02 -95 119 C-102.92 119 -110.84 119 -119 119 C-119 134.84 -119 150.68 -119 167 C-126.92 167 -134.84 167 -143 167 C-143 182.51 -143 198.02 -143 214 C-143.33 214 -143.66 214 -144 214 C-144 198.16 -144 182.32 -144 166 C-136.08 166 -128.16 166 -120 166 C-120 150.16 -120 134.32 -120 118 C-112.08 118 -104.16 118 -96 118 C-96 102.49 -96 86.98 -96 71 C-88.08 71 -80.16 71 -72 71 C-72 55.16 -72 39.32 -72 23 C-63.75 23 -55.5 23 -47 23 C-47 30.92 -47 38.84 -47 47 C-47.33 47 -47.66 47 -48 47 C-48 39.41 -48 31.82 -48 24 C-55.59 24 -63.18 24 -71 24 C-71 39.51 -71 55.02 -71 71 C-63.41 71 -55.82 71 -48 71 C-48 78.92 -48 86.84 -48 95 C-39.75 95 -31.5 95 -23 95 C-23 79.16 -23 63.32 -23 47 C-15.41 47 -7.82 47 0 47 C0 31.49 0 15.98 0 0 Z " fill="#557AAB" transform="translate(208,120)"/>
<path d="M0 0 C7.59 0 15.18 0 23 0 C23 7.92 23 15.84 23 24 C30.92 24 38.84 24 47 24 C47 47.43 47 70.86 47 95 C54.92 95 62.84 95 71 95 C71.14479096 101.41475646 71.28792627 107.82951226 71.42724609 114.24438477 C71.47484625 116.41530318 71.52331398 118.58620278 71.57275391 120.75708008 C71.91552353 135.84244122 72.04758233 150.91045211 72 166 C79.59 166 87.18 166 95 166 C95 158.41 95 150.82 95 143 C102.92 143 110.84 143 119 143 C119 158.84 119 174.68 119 191 C126.59 191 134.18 191 142 191 C142 206.84 142 222.68 142 239 C149.92 239 157.84 239 166 239 C166 254.51 166 270.02 166 286 C158.74 286 151.48 286 144 286 C144 278.08 144 270.16 144 262 C135.75 262 127.5 262 119 262 C119 246.16 119 230.32 119 214 C111.41 214 103.82 214 96 214 C96 206.08 96 198.16 96 190 C87.75 190 79.5 190 71 190 C71 182.08 71 174.16 71 166 C63.08 166 55.16 166 47 166 C47 158.41 47 150.82 47 143 C39.41 143 31.82 143 24 143 C24 166.43 24 189.86 24 214 C31.59 214 39.18 214 47 214 C47 237.43 47 260.86 47 285 C39.41 285 31.82 285 24 285 C24 269.49 24 253.98 24 238 C16.08 238 8.16 238 0 238 C0 159.46 0 80.92 0 0 Z " fill="#F9FEF7" transform="translate(256,1)"/>
<path d="M0 0 C0.33 0 0.66 0 1 0 C1 133.98 1 267.96 1 406 C-6.92 406 -14.84 406 -23 406 C-23 413.92 -23 421.84 -23 430 C-30.92 430 -38.84 430 -47 430 C-47 437.92 -47 445.84 -47 454 C-173.72 454 -300.44 454 -431 454 C-431 446.08 -431 438.16 -431 430 C-438.92 430 -446.84 430 -455 430 C-455 422.08 -455 414.16 -455 406 C-462.92 406 -470.84 406 -479 406 C-479.02302145 394.1644951 -479.0411774 382.32900618 -479.05181217 370.49348354 C-479.05692826 364.99182206 -479.06380695 359.49017726 -479.07543945 353.98852539 C-479.13859666 323.31144557 -478.79604889 292.66707778 -478 262 C-477.67 262 -477.34 262 -477 262 C-477 277.51 -477 293.02 -477 309 C-469.74 309 -462.48 309 -455 309 C-455 301.08 -455 293.16 -455 285 C-454.67 285 -454.34 285 -454 285 C-454 293.25 -454 301.5 -454 310 C-461.92 310 -469.84 310 -478 310 C-478 333.43 -478 356.86 -478 381 C-462.16 381 -446.32 381 -430 381 C-430 388.92 -430 396.84 -430 405 C-414.49 405 -398.98 405 -383 405 C-383 412.92 -383 420.84 -383 429 C-343.4 429 -303.8 429 -263 429 C-263 436.59 -263 444.18 -263 452 C-239.57 452 -216.14 452 -192 452 C-192 444.41 -192 436.82 -192 429 C-159.99 429 -127.98 429 -95 429 C-95 421.08 -95 413.16 -95 405 C-87.41 405 -79.82 405 -72 405 C-72 397.08 -72 389.16 -72 381 C-48.57 381 -25.14 381 -1 381 C-1 357.57 -1 334.14 -1 310 C-16.51 310 -32.02 310 -48 310 C-48 294.16 -48 278.32 -48 262 C-55.92 262 -63.84 262 -72 262 C-72 238.24 -72 214.48 -72 190 C-79.59 190 -87.18 190 -95 190 C-95 189.67 -95 189.34 -95 189 C-87.08 189 -79.16 189 -71 189 C-71 204.84 -71 220.68 -71 237 C-63.08 237 -55.16 237 -47 237 C-47 252.84 -47 268.68 -47 285 C-39.08 285 -31.16 285 -23 285 C-23 292.92 -23 300.84 -23 309 C-15.74 309 -8.48 309 -1 309 C-1 293.49 -1 277.98 -1 262 C-8.59 262 -16.18 262 -24 262 C-24 261.67 -24 261.34 -24 261 C-16.08 261 -8.16 261 0 261 C0 174.87 0 88.74 0 0 Z " fill="#9FA0A2" transform="translate(495,49)"/>
<path d="M0 0 C31.35 0 62.7 0 95 0 C95 7.92 95 15.84 95 24 C158.36 24 221.72 24 287 24 C287 16.08 287 8.16 287 0 C310.43 0 333.86 0 358 0 C358 7.92 358 15.84 358 24 C350.41 24 342.82 24 335 24 C335 31.92 335 39.84 335 48 C302.99 48 270.98 48 238 48 C238 55.59 238 63.18 238 71 C214.57 71 191.14 71 167 71 C167 63.41 167 55.82 167 48 C127.4 48 87.8 48 47 48 C47 40.08 47 32.16 47 24 C31.49 24 15.98 24 0 24 C0 16.08 0 8.16 0 0 Z " fill="#628AB7" transform="translate(65,430)"/>
<path d="M0 0 C7.92 0 15.84 0 24 0 C24 86.79 24 173.58 24 263 C39.51 263 55.02 263 71 263 C71 263.33 71 263.66 71 264 C63.41 264 55.82 264 48 264 C48 279.51 48 295.02 48 311 C40.08 311 32.16 311 24 311 C24 303.08 24 295.16 24 287 C16.08 287 8.16 287 0 287 C0 294.92 0 302.84 0 311 C-7.92 311 -15.84 311 -24 311 C-24 295.16 -24 279.32 -24 263 C-16.08 263 -8.16 263 0 263 C0 231.65 0 200.3 0 168 C-7.92 168 -15.84 168 -24 168 C-24 144.24 -24 120.48 -24 96 C-16.08 96 -8.16 96 0 96 C0 72.57 0 49.14 0 25 C-7.92 25 -15.84 25 -24 25 C-24 24.67 -24 24.34 -24 24 C-16.08 24 -8.16 24 0 24 C0 16.08 0 8.16 0 0 Z " fill="#86B7DA" transform="translate(232,95)"/>
<path d="M0 0 C8.25 0 16.5 0 25 0 C25 7.92 25 15.84 25 24 C24.67 24 24.34 24 24 24 C24 16.41 24 8.82 24 1 C16.41 1 8.82 1 1 1 C1 16.51 1 32.02 1 48 C8.59 48 16.18 48 24 48 C24 63.84 24 79.68 24 96 C16.41 96 8.82 96 1 96 C1 103.92 1 111.84 1 120 C16.84 120 32.68 120 49 120 C49 167.19 49 214.38 49 263 C40.75 263 32.5 263 24 263 C24 239.57 24 216.14 24 192 C16.41 192 8.82 192 1 192 C1.03958834 199.52432774 1.03958834 199.52432774 1.09008789 207.04858398 C1.09258545 207.98001221 1.09508301 208.91144043 1.09765625 209.87109375 C1.10289307 210.82943115 1.10812988 211.78776855 1.11352539 212.77514648 C1 215 1 215 0 216 C-7.59 216 -15.18 216 -23 216 C-23 231.51 -23 247.02 -23 263 C-31.25 263 -39.5 263 -48 263 C-48.18451025 213.46924829 -48.18451025 213.46924829 -47 192 C-39.41 192 -31.82 192 -24 192 C-24.01160156 188.8134375 -24.02320313 185.626875 -24.03515625 182.34375 C-24.15253422 140.74561592 -24.15253422 140.74561592 -23 120 C-15.41 120 -7.82 120 0 120 C0 96.57 0 73.14 0 49 C-7.59 49 -15.18 49 -23 49 C-23 64.51 -23 80.02 -23 96 C-30.92 96 -38.84 96 -47 96 C-47 111.84 -47 127.68 -47 144 C-54.92 144 -62.84 144 -71 144 C-71 159.51 -71 175.02 -71 191 C-71.33 191 -71.66 191 -72 191 C-72 175.16 -72 159.32 -72 143 C-64.08 143 -56.16 143 -48 143 C-48 127.16 -48 111.32 -48 95 C-40.08 95 -32.16 95 -24 95 C-24 79.49 -24 63.98 -24 48 C-16.08 48 -8.16 48 0 48 C0 32.16 0 16.32 0 0 Z " fill="#C2DFE9" transform="translate(136,143)"/>
<path d="M0 0 C7.59 0 15.18 0 23 0 C23 23.43 23 46.86 23 71 C15.41 71 7.82 71 0 71 C0.01546875 76.15109375 0.01546875 76.15109375 0.03125 81.40625 C0.04564179 94.4425091 -0.20199411 107.46774243 -0.5 120.5 C-0.54841664 122.70311975 -0.59659458 124.90624476 -0.64453125 127.109375 C-0.75985533 132.40632926 -0.88000644 137.70314145 -1 143 C-8.59 143 -16.18 143 -24 143 C-23.979375 145.990625 -23.95875 148.98125 -23.9375 152.0625 C-23.87436899 172.70941947 -24.53095178 193.36187834 -25 214 C-48.1 214 -71.2 214 -95 214 C-95 221.92 -95 229.84 -95 238 C-95.33 238 -95.66 238 -96 238 C-96 214.57 -96 191.14 -96 167 C-88.08 167 -80.16 167 -72 167 C-72 158.75 -72 150.5 -72 142 C-64.08 142 -56.16 142 -48 142 C-48 126.49 -48 110.98 -48 95 C-40.08 95 -32.16 95 -24 95 C-24 79.16 -24 63.32 -24 47 C-16.08 47 -8.16 47 0 47 C0 31.49 0 15.98 0 0 Z " fill="#CFE9E9" transform="translate(113,192)"/>
<path d="M0 0 C54.45 0 108.9 0 165 0 C165 7.26 165 14.52 165 22 C117.81 22 70.62 22 22 22 C22 29.92 22 37.84 22 46 C14.08 46 6.16 46 -2 46 C-2 101.44 -2 156.88 -2 214 C-9.26 214 -16.52 214 -24 214 C-24 151.3 -24 88.6 -24 24 C-16.41 23.67 -8.82 23.34 -1 23 C-0.67 15.41 -0.34 7.82 0 0 Z " fill="#FCFEF8" transform="translate(42,25)"/>
<path d="M0 0 C54.45 0 108.9 0 165 0 C165 7.92 165 15.84 165 24 C172.92 24 180.84 24 189 24 C189 86.7 189 149.4 189 214 C181.74 214 174.48 214 167 214 C167 158.56 167 103.12 167 46 C159.08 46 151.16 46 143 46 C143 38.08 143 30.16 143 22 C95.81 22 48.62 22 0 22 C0 14.74 0 7.48 0 0 Z " fill="#FDFEF9" transform="translate(305,25)"/>
<path d="M0 0 C15.51 0 31.02 0 47 0 C47 7.92 47 15.84 47 24 C62.51 24 78.02 24 94 24 C94 31.92 94 39.84 94 48 C133.6 48 173.2 48 214 48 C214 55.59 214 63.18 214 71 C158.89 71 103.78 71 47 71 C47 63.08 47 55.16 47 47 C39.41 47 31.82 47 24 47 C24 39.08 24 31.16 24 23 C16.08 23 8.16 23 0 23 C0 15.41 0 7.82 0 0 Z " fill="#243352" transform="translate(18,430)"/>
<path d="M0 0 C0.33 0 0.66 0 1 0 C1 15.51 1 31.02 1 47 C8.92 47 16.84 47 25 47 C25 70.76 25 94.52 25 119 C32.92 119 40.84 119 49 119 C49 134.84 49 150.68 49 167 C64.51 167 80.02 167 96 167 C96 182.51 96 198.02 96 214 C72.57 214 49.14 214 25 214 C25 198.16 25 182.32 25 166 C17.41 166 9.82 166 2 166 C2 142.57 2 119.14 2 95 C9.26 95 16.52 95 24 95 C24 79.49 24 63.98 24 48 C16.08 48 8.16 48 0 48 C0 32.16 0 16.32 0 0 Z " fill="#D8EEEB" transform="translate(398,192)"/>
<path d="M0 0 C7.59 0 15.18 0 23 0 C23 7.59 23 15.18 23 23 C30.92 23 38.84 23 47 23 C47 30.92 47 38.84 47 47 C55.25 47 63.5 47 72 47 C72 54.92 72 62.84 72 71 C79.59 71 87.18 71 95 71 C95 86.84 95 102.68 95 119 C79.16 119 63.32 119 47 119 C47 111.08 47 103.16 47 95 C39.41 95 31.82 95 24 95 C24 87.08 24 79.16 24 71 C16.08 71 8.16 71 0 71 C0 47.57 0 24.14 0 0 Z " fill="#8ACBE1" transform="translate(280,144)"/>
<path d="M0 0 C23.43 0 46.86 0 71 0 C71 7.92 71 15.84 71 24 C63.41 24 55.82 24 48 24 C48 31.92 48 39.84 48 48 C15.99 48 -16.02 48 -49 48 C-49 55.59 -49 63.18 -49 71 C-72.43 71 -95.86 71 -120 71 C-120 63.41 -120 55.82 -120 48 C-104.16 48 -88.32 48 -72 48 C-72 40.08 -72 32.16 -72 24 C-48.24 24 -24.48 24 0 24 C0 16.08 0 8.16 0 0 Z " fill="#8CBDDB" transform="translate(352,430)"/>
<path d="M0 0 C7.59 0 15.18 0 23 0 C23 31.02 23 62.04 23 94 C15.08 94 7.16 94 -1 94 C-1 101.92 -1 109.84 -1 118 C-8.92 118 -16.84 118 -25 118 C-25 133.84 -25 149.68 -25 166 C-32.59 166 -40.18 166 -48 166 C-48 142.57 -48 119.14 -48 95 C-40.08 95 -32.16 95 -24 95 C-24 71.57 -24 48.14 -24 24 C-16.08 24 -8.16 24 0 24 C0 16.08 0 8.16 0 0 Z " fill="#C8E6EB" transform="translate(233,1)"/>
<path d="M0 0 C7.59 0 15.18 0 23 0 C23 7.92 23 15.84 23 24 C31.25 24 39.5 24 48 24 C48 31.59 48 39.18 48 47 C55.59 47 63.18 47 71 47 C72.25578354 71.0168602 72.0685304 94.94583131 72 119 C55.83 119 39.66 119 23 119 C23 103.16 23 87.32 23 71 C15.41 71 7.82 71 0 71 C0 47.57 0 24.14 0 0 Z " fill="#4E6C97" transform="translate(280,287)"/>
<path d="M0 0 C7.92 0 15.84 0 24 0 C24 47.52 24 95.04 24 144 C16.08 144 8.16 144 0 144 C0 151.92 0 159.84 0 168 C-7.92 168 -15.84 168 -24 168 C-24 144.24 -24 120.48 -24 96 C-16.08 96 -8.16 96 0 96 C0 72.57 0 49.14 0 25 C-7.92 25 -15.84 25 -24 25 C-24 24.67 -24 24.34 -24 24 C-16.08 24 -8.16 24 0 24 C0 16.08 0 8.16 0 0 Z " fill="#88CAE4" transform="translate(232,95)"/>
<path d="M0 0 C63.36 0 126.72 0 192 0 C192 7.92 192 15.84 192 24 C128.64 24 65.28 24 0 24 C0 16.08 0 8.16 0 0 Z " fill="#E7F8F3" transform="translate(160,430)"/>
<path d="M0 0 C7.92 0 15.84 0 24 0 C24 31.35 24 62.7 24 95 C16.08 95 8.16 95 0 95 C0 110.84 0 126.68 0 143 C-7.59 143 -15.18 143 -23 143 C-23 111.65 -23 80.3 -23 48 C-15.41 48 -7.82 48 0 48 C0 32.16 0 16.32 0 0 Z " fill="#415577" transform="translate(208,263)"/>
<path d="M0 0 C7.59 0 15.18 0 23 0 C23 24.09 23 48.18 23 73 C15.41 73 7.82 73 0 73 C0 88.51 0 104.02 0 120 C-8.25 120 -16.5 120 -25 120 C-25.18451025 70.46924829 -25.18451025 70.46924829 -24 49 C-16.41 49 -8.82 49 -1 49 C-1.01160156 45.54660156 -1.02320312 42.09320313 -1.03515625 38.53515625 C-1.04294569 35.20581148 -1.04902309 31.87646771 -1.05493164 28.54711914 C-1.05997333 26.22582549 -1.06680651 23.90453503 -1.07543945 21.58325195 C-1.08751225 18.25471205 -1.09322979 14.92621398 -1.09765625 11.59765625 C-1.10281754 10.55287613 -1.10797882 9.50809601 -1.11329651 8.43165588 C-1.11340981 6.99027504 -1.11340981 6.99027504 -1.11352539 5.51977539 C-1.115746 4.66928116 -1.11796661 3.81878693 -1.12025452 2.94252014 C-1 1 -1 1 0 0 Z " fill="#46689A" transform="translate(113,286)"/>
<path d="M0 0 C8.25 0 16.5 0 25 0 C25 31.35 25 62.7 25 95 C32.59 95 40.18 95 48 95 C48 110.84 48 126.68 48 143 C40.08 143 32.16 143 24 143 C24 127.49 24 111.98 24 96 C16.41 96 8.82 96 1 96 C0.86786081 86.8792327 0.73717246 77.75844749 0.60884857 68.63762569 C0.54917063 64.39976173 0.4889239 60.16190764 0.42724609 55.92407227 C0.15631843 37.28097005 -0.06382786 18.64571299 0 0 Z " fill="#78BDDB" transform="translate(375,263)"/>
<path d="M0 0 C47.19 0 94.38 0 143 0 C143 7.59 143 15.18 143 23 C95.81 23 48.62 23 0 23 C0 15.41 0 7.82 0 0 Z " fill="#2A3B5B" transform="translate(303,478)"/>
<path d="M0 0 C7.26 0 14.52 0 22 0 C22 47.19 22 94.38 22 143 C14.74 143 7.48 143 0 143 C0 95.81 0 48.62 0 0 Z " fill="#D5EFEB" transform="translate(472,96)"/>
<path d="M0 0 C7.26 0 14.52 0 22 0 C22 47.19 22 94.38 22 143 C14.74 143 7.48 143 0 143 C0 95.81 0 48.62 0 0 Z " fill="#D4EDEC" transform="translate(18,96)"/>
<path d="M0 0 C39.6 0 79.2 0 120 0 C120 7.92 120 15.84 120 24 C80.4 24 40.8 24 0 24 C0 16.08 0 8.16 0 0 Z " fill="#7AAFD2" transform="translate(160,454)"/>
<path d="M0 0 C7.92 0 15.84 0 24 0 C24 39.27 24 78.54 24 119 C16.08 119 8.16 119 0 119 C0 79.73 0 40.46 0 0 Z " fill="#CCEDEE" transform="translate(256,239)"/>
<path d="M0 0 C15.84 0 31.68 0 48 0 C48.020625 7.445625 48.04125 14.89125 48.0625 22.5625 C48.071604 24.85904541 48.08070801 27.15559082 48.09008789 29.52172852 C48.12088808 43.38072211 47.69295527 57.15726368 47 71 C39.41 71 31.82 71 24 71 C23.505 59.615 23.505 59.615 23 48 C11.615 47.505 11.615 47.505 0 47 C0 31.49 0 15.98 0 0 Z " fill="#CDE8EC" transform="translate(137,263)"/>
<path d="M0 0 C7.59 0 15.18 0 23 0 C23 7.59 23 15.18 23 23 C30.92 23 38.84 23 47 23 C47 38.84 47 54.68 47 71 C31.49 71 15.98 71 0 71 C0 47.57 0 24.14 0 0 Z " fill="#85D1E8" transform="translate(280,144)"/>
<path d="M0 0 C15.51 0 31.02 0 47 0 C47 7.92 47 15.84 47 24 C62.51 24 78.02 24 94 24 C94 31.92 94 39.84 94 48 C78.82 48 63.64 48 48 48 C48 55.59 48 63.18 48 71 C47.67 71 47.34 71 47 71 C47 63.08 47 55.16 47 47 C39.41 47 31.82 47 24 47 C24 39.08 24 31.16 24 23 C16.08 23 8.16 23 0 23 C0 15.41 0 7.82 0 0 Z " fill="#3A547D" transform="translate(18,430)"/>
<path d="M0 0 C0.33 0 0.66 0 1 0 C1 7.59 1 15.18 1 23 C8.59 23 16.18 23 24 23 C24 15.41 24 7.82 24 0 C31.92 0 39.84 0 48 0 C48.78813677 28.83736148 49.09328194 57.65347428 49.0625 86.5 C49.06121597 87.71187422 49.06121597 87.71187422 49.05990601 88.94823074 C49.04850471 98.96551039 49.02841269 108.98275369 49 119 C48.67 119 48.34 119 48 119 C48 103.16 48 87.32 48 71 C40.41 71 32.82 71 25 71 C25 63.08 25 55.16 25 47 C16.75 47 8.5 47 0 47 C0 31.49 0 15.98 0 0 Z " fill="#EBF5ED" transform="translate(327,144)"/>
<path d="M0 0 C0.33 0 0.66 0 1 0 C1 7.92 1 15.84 1 24 C8.59 24 16.18 24 24 24 C24 31.92 24 39.84 24 48 C31.92 48 39.84 48 48 48 C48 55.92 48 63.84 48 72 C40.41 72 32.82 72 25 72 C25 79.59 25 87.18 25 95 C17.08 95 9.16 95 1 95 C1 87.41 1 79.82 1 72 C-6.92 72 -14.84 72 -23 72 C-23 71.67 -23 71.34 -23 71 C-15.41 71 -7.82 71 0 71 C0 47.57 0 24.14 0 0 Z " fill="#9DD5E5" transform="translate(303,215)"/>
<path d="M0 0 C7.59 0 15.18 0 23 0 C23 7.92 23 15.84 23 24 C31.25 24 39.5 24 48 24 C48 31.59 48 39.18 48 47 C55.59 47 63.18 47 71 47 C71 54.92 71 62.84 71 71 C63.08 71 55.16 71 47 71 C47 63.41 47 55.82 47 48 C31.49 48 15.98 48 0 48 C0 32.16 0 16.32 0 0 Z " fill="#5A82AF" transform="translate(280,287)"/>
<path d="M0 0 C0.33 0 0.66 0 1 0 C1.23135059 23.67487741 0.53790036 47.33238402 0 71 C-23.1 71 -46.2 71 -70 71 C-70 63.08 -70 55.16 -70 47 C-54.49 47 -38.98 47 -23 47 C-23 39.08 -23 31.16 -23 23 C-15.41 23 -7.82 23 0 23 C0 15.41 0 7.82 0 0 Z " fill="#94BFDC" transform="translate(88,335)"/>
<path d="M0 0 C15.51 0 31.02 0 47 0 C47 23.76 47 47.52 47 72 C39.41 72 31.82 72 24 72 C24 56.16 24 40.32 24 24 C16.08 24 8.16 24 0 24 C0 16.08 0 8.16 0 0 Z " fill="#6F96C1" transform="translate(161,239)"/>
<path d="M0 0 C7.59 0 15.18 0 23 0 C23 7.92 23 15.84 23 24 C30.92 24 38.84 24 47 24 C47 39.51 47 55.02 47 71 C39.08 71 31.16 71 23 71 C23 63.08 23 55.16 23 47 C15.41 47 7.82 47 0 47 C0 31.49 0 15.98 0 0 Z " fill="#A1CAE5" transform="translate(137,144)"/>
<path d="M0 0 C7.26 0 14.52 0 22 0 C22 23.43 22 46.86 22 71 C6.82 71 -8.36 71 -24 71 C-24 63.41 -24 55.82 -24 48 C-16.08 48 -8.16 48 0 48 C0 32.16 0 16.32 0 0 Z " fill="#D8EFED" transform="translate(114,192)"/>
<path d="M0 0 C8.25 0 16.5 0 25 0 C25 7.92 25 15.84 25 24 C24.67 24 24.34 24 24 24 C24 16.41 24 8.82 24 1 C16.41 1 8.82 1 1 1 C1 16.51 1 32.02 1 48 C8.59 48 16.18 48 24 48 C24 63.84 24 79.68 24 96 C16.41 96 8.82 96 1 96 C1 135.27 1 174.54 1 215 C0.67 215 0.34 215 0 215 C0 191.24 0 167.48 0 143 C-7.59 143 -15.18 143 -23 143 C-23 135.41 -23 127.82 -23 120 C-15.41 120 -7.82 120 0 120 C0 96.57 0 73.14 0 49 C-7.59 49 -15.18 49 -23 49 C-23 64.51 -23 80.02 -23 96 C-30.92 96 -38.84 96 -47 96 C-47 111.84 -47 127.68 -47 144 C-54.92 144 -62.84 144 -71 144 C-71 159.51 -71 175.02 -71 191 C-71.33 191 -71.66 191 -72 191 C-72 175.16 -72 159.32 -72 143 C-64.08 143 -56.16 143 -48 143 C-48 127.16 -48 111.32 -48 95 C-40.08 95 -32.16 95 -24 95 C-24 79.49 -24 63.98 -24 48 C-16.08 48 -8.16 48 0 48 C0 32.16 0 16.32 0 0 Z " fill="#87A5BA" transform="translate(136,143)"/>
<path d="M0 0 C7.92 0 15.84 0 24 0 C24 23.76 24 47.52 24 72 C16.08 72 8.16 72 0 72 C0 48.24 0 24.48 0 0 Z " fill="#BDE0E9" transform="translate(208,191)"/>
<path d="M0 0 C23.43 0 46.86 0 71 0 C71 7.92 71 15.84 71 24 C47.57 24 24.14 24 0 24 C0 16.08 0 8.16 0 0 Z " fill="#8AC1DC" transform="translate(352,430)"/>
<path d="M0 0 C23.43 0 46.86 0 71 0 C71 7.92 71 15.84 71 24 C47.57 24 24.14 24 0 24 C0 16.08 0 8.16 0 0 Z " fill="#B0D5E5" transform="translate(423,382)"/>
<path d="M0 0 C7.92 0 15.84 0 24 0 C24 23.43 24 46.86 24 71 C16.08 71 8.16 71 0 71 C0 47.57 0 24.14 0 0 Z " fill="#78ABD0" transform="translate(232,239)"/>
<path d="M0 0 C23.43 0 46.86 0 71 0 C71 7.59 71 15.18 71 23 C54.83171932 23.80936998 38.74823583 24.12805934 22.5625 24.0625 C20.35481875 24.05746445 18.14713636 24.05290525 15.93945312 24.04882812 C10.62624922 24.03887458 5.31321016 24.01927404 0 24 C0 16.08 0 8.16 0 0 Z " fill="#70A0C8" transform="translate(423,430)"/>
<path d="M0 0 C23.1 0 46.2 0 70 0 C70 7.59 70 15.18 70 23 C62.41 23 54.82 23 47 23 C47 30.92 47 38.84 47 47 C46.67 47 46.34 47 46 47 C46 39.41 46 31.82 46 24 C30.82 24 15.64 24 0 24 C0 16.08 0 8.16 0 0 Z " fill="#3C5E91" transform="translate(400,454)"/>
<path d="M0 0 C7.59 0 15.18 0 23 0 C23 15.84 23 31.68 23 48 C7.49 48 -8.02 48 -24 48 C-24 40.08 -24 32.16 -24 24 C-16.08 24 -8.16 24 0 24 C0 16.08 0 8.16 0 0 Z " fill="#7EC5E1" transform="translate(352,215)"/>
<path d="M0 0 C7.59 0 15.18 0 23 0 C23 7.59 23 15.18 23 23 C30.92 23 38.84 23 47 23 C47 30.92 47 38.84 47 47 C31.49 47 15.98 47 0 47 C0 31.49 0 15.98 0 0 Z " fill="#2D4364" transform="translate(304,359)"/>
<path d="M0 0 C7.59 0 15.18 0 23 0 C23 23.43 23 46.86 23 71 C15.41 71 7.82 71 0 71 C0 47.57 0 24.14 0 0 Z " fill="#FBFFF4" transform="translate(352,287)"/>
<path d="M0 0 C1.24132187 0.00222061 2.48264374 0.00444122 3.76158142 0.00672913 C4.44447739 0.0065831 5.12737335 0.00643707 5.83096313 0.00628662 C8.09815092 0.00698575 10.36525752 0.01477811 12.63243103 0.02259827 C14.20041865 0.02446245 15.76840685 0.02588635 17.33639526 0.02688599 C21.47103981 0.03071117 25.60564944 0.04054146 29.74028015 0.05158997 C33.95627876 0.06180407 38.172283 0.0663836 42.38829041 0.07142639 C50.66630304 0.08216373 58.94428055 0.09976053 67.22227478 0.12025452 C67.22227478 7.71025452 67.22227478 15.30025452 67.22227478 23.12025452 C43.79227478 23.12025452 20.36227478 23.12025452 -3.77772522 23.12025452 C-3.77772522 0.16354696 -3.77772522 0.16354696 0 0 Z " fill="#25324E" transform="translate(378.77772521972656,477.87974548339844)"/>
<path d="M0 0 C7.26 0 14.52 0 22 0 C22 23.43 22 46.86 22 71 C14.74 71 7.48 71 0 71 C0 47.57 0 24.14 0 0 Z " fill="#BEDBE8" transform="translate(472,239)"/>
<path d="M0 0 C7.26 0 14.52 0 22 0 C22 23.43 22 46.86 22 71 C14.74 71 7.48 71 0 71 C0 47.57 0 24.14 0 0 Z " fill="#BEDBE8" transform="translate(18,239)"/>
<path d="M0 0 C7.26 0 14.52 0 22 0 C22 23.43 22 46.86 22 71 C14.74 71 7.48 71 0 71 C0 47.57 0 24.14 0 0 Z " fill="#E1F4EF" transform="translate(472,96)"/>
<path d="M0 0 C7.26 0 14.52 0 22 0 C22 23.43 22 46.86 22 71 C14.74 71 7.48 71 0 71 C0 47.57 0 24.14 0 0 Z " fill="#E1F4EF" transform="translate(18,96)"/>
<path d="M0 0 C1.83482893 0.00138269 1.83482893 0.00138269 3.70672512 0.00279331 C4.38544924 0.00193889 5.06417335 0.00108446 5.76346487 0.00020415 C8.05442791 -0.00145258 10.34531891 0.00407383 12.63627529 0.00952244 C14.27186996 0.00980429 15.90746475 0.00964661 17.54305935 0.00907993 C21.99741451 0.0087919 26.45174299 0.01468959 30.90609193 0.02165389 C35.55593339 0.02788644 40.20577539 0.02849115 44.85562038 0.0296793 C53.66708568 0.03279291 62.47853863 0.04100669 71.28999847 0.05102879 C81.31884973 0.06218901 91.34770156 0.06770014 101.37655747 0.07272422 C122.01253476 0.08318929 142.64850093 0.1007893 163.28446865 0.12304783 C163.28446865 0.45304783 163.28446865 0.78304783 163.28446865 1.12304783 C108.83446865 1.12304783 54.38446865 1.12304783 -1.71553135 1.12304783 C-1.71553135 8.38304783 -1.71553135 15.64304783 -1.71553135 23.12304783 C45.47446865 23.12304783 92.66446865 23.12304783 141.28446865 23.12304783 C141.28446865 31.04304783 141.28446865 38.96304783 141.28446865 47.12304783 C149.20446865 47.12304783 157.12446865 47.12304783 165.28446865 47.12304783 C165.28446865 125.99304783 165.28446865 204.86304783 165.28446865 286.12304783 C164.95446865 286.12304783 164.62446865 286.12304783 164.28446865 286.12304783 C164.28446865 207.58304783 164.28446865 129.04304783 164.28446865 48.12304783 C156.36446865 48.12304783 148.44446865 48.12304783 140.28446865 48.12304783 C140.28446865 40.20304783 140.28446865 32.28304783 140.28446865 24.12304783 C93.09446865 24.12304783 45.90446865 24.12304783 -2.71553135 24.12304783 C-2.71553135 39.63304783 -2.71553135 55.14304783 -2.71553135 71.12304783 C5.20446865 71.12304783 13.12446865 71.12304783 21.28446865 71.12304783 C21.28446865 86.96304783 21.28446865 102.80304783 21.28446865 119.12304783 C37.12446865 119.12304783 52.96446865 119.12304783 69.28446865 119.12304783 C69.28446865 134.96304783 69.28446865 150.80304783 69.28446865 167.12304783 C77.20446865 167.12304783 85.12446865 167.12304783 93.28446865 167.12304783 C93.28446865 182.96304783 93.28446865 198.80304783 93.28446865 215.12304783 C92.95446865 215.12304783 92.62446865 215.12304783 92.28446865 215.12304783 C92.28446865 199.61304783 92.28446865 184.10304783 92.28446865 168.12304783 C84.36446865 168.12304783 76.44446865 168.12304783 68.28446865 168.12304783 C68.28446865 152.28304783 68.28446865 136.44304783 68.28446865 120.12304783 C60.36446865 120.12304783 52.44446865 120.12304783 44.28446865 120.12304783 C44.28446865 127.71304783 44.28446865 135.30304783 44.28446865 143.12304783 C36.69446865 143.12304783 29.10446865 143.12304783 21.28446865 143.12304783 C20.47509867 126.95476715 20.15640931 110.87128366 20.22196865 94.68554783 C20.2270042 92.47786658 20.2315634 90.27018418 20.23564053 88.06250095 C20.24559407 82.74929705 20.26519461 77.43625799 20.28446865 72.12304783 C12.36446865 72.12304783 4.44446865 72.12304783 -3.71553135 72.12304783 C-3.73808396 62.88306912 -3.75644736 53.64310855 -3.76734352 44.4031086 C-3.77257195 40.11304868 -3.77966888 35.8230085 -3.7909708 31.53295994 C-3.8018011 27.39625383 -3.80780848 23.25956675 -3.81040859 19.12284756 C-3.81226258 17.54112479 -3.81588271 15.95940312 -3.82126141 14.37768841 C-3.82847375 12.16981945 -3.82952221 9.9620301 -3.82905674 7.75415134 C-3.83127735 6.49506458 -3.83349796 5.23597782 -3.83578587 3.93873692 C-3.6746788 0.16650931 -3.6746788 0.16650931 0 0 Z " fill="#B8BBBC" transform="translate(306.71553134918213,23.876952171325684)"/>
<path d="M0 0 C7.92 0 15.84 0 24 0 C24 15.84 24 31.68 24 48 C31.92 48 39.84 48 48 48 C48 63.84 48 79.68 48 96 C55.92 96 63.84 96 72 96 C72 103.92 72 111.84 72 120 C63.75 120 55.5 120 47 120 C47 104.49 47 88.98 47 73 C39.08 73 31.16 73 23 73 C23 49.24 23 25.48 23 1 C15.41 1 7.82 1 0 1 C0 0.67 0 0.34 0 0 Z " fill="#8A929F" transform="translate(400,238)"/>
<path d="M0 0 C7.92 0 15.84 0 24 0 C24 0.33 24 0.66 24 1 C16.41 1 8.82 1 1 1 C1 16.51 1 32.02 1 48 C-6.92 48 -14.84 48 -23 48 C-23 55.92 -23 63.84 -23 72 C-15.41 72 -7.82 72 0 72 C0 79.59 0 87.18 0 95 C-15.51 95 -31.02 95 -47 95 C-47 110.84 -47 126.68 -47 143 C-47.33 143 -47.66 143 -48 143 C-48 119.57 -48 96.14 -48 72 C-40.08 72 -32.16 72 -24 72 C-24 63.75 -24 55.5 -24 47 C-16.08 47 -8.16 47 0 47 C0 31.49 0 15.98 0 0 Z " fill="#B3D3DE" transform="translate(65,287)"/>
<path d="M0 0 C15.84 0 31.68 0 48 0 C48 8.25 48 16.5 48 25 C32.16 25 16.32 25 0 25 C0 16.75 0 8.5 0 0 Z " fill="#6AB0D9" transform="translate(375,95)"/>
<path d="M0 0 C15.51 0 31.02 0 47 0 C47 0.33 47 0.66 47 1 C39.41 1 31.82 1 24 1 C24 16.51 24 32.02 24 48 C16.08 48 8.16 48 0 48 C0 32.16 0 16.32 0 0 Z " fill="#BCE2E8" transform="translate(256,358)"/>
<path d="M0 0 C15.84 0 31.68 0 48 0 C48 7.92 48 15.84 48 24 C32.16 24 16.32 24 0 24 C0 16.08 0 8.16 0 0 Z " fill="#7AA9D0" transform="translate(352,454)"/>
<path d="M0 0 C15.84 0 31.68 0 48 0 C48 7.92 48 15.84 48 24 C32.16 24 16.32 24 0 24 C0 16.08 0 8.16 0 0 Z " fill="#83B5D9" transform="translate(160,454)"/>
<path d="M0 0 C7.92 0 15.84 0 24 0 C24 15.84 24 31.68 24 48 C16.08 48 8.16 48 0 48 C0 32.16 0 16.32 0 0 Z " fill="#EFFDF9" transform="translate(423,311)"/>
<path d="M0 0 C7.92 0 15.84 0 24 0 C24 15.84 24 31.68 24 48 C16.08 48 8.16 48 0 48 C0 32.16 0 16.32 0 0 Z " fill="#3E5781" transform="translate(208,263)"/>
<path d="M0 0 C7.92 0 15.84 0 24 0 C24 7.92 24 15.84 24 24 C16.41 24 8.82 24 1 24 C1 31.92 1 39.84 1 48 C-6.92 48 -14.84 48 -23 48 C-23 40.08 -23 32.16 -23 24 C-15.41 24 -7.82 24 0 24 C0 16.08 0 8.16 0 0 Z " fill="#5E87B6" transform="translate(160,215)"/>
<path d="M0 0 C7.92 0 15.84 0 24 0 C24 15.84 24 31.68 24 48 C16.08 48 8.16 48 0 48 C0 32.16 0 16.32 0 0 Z " fill="#8DBFDE" transform="translate(232,191)"/>
<path d="M0 0 C7.92 0 15.84 0 24 0 C24 15.84 24 31.68 24 48 C16.08 48 8.16 48 0 48 C0 32.16 0 16.32 0 0 Z " fill="#F8FEF5" transform="translate(256,167)"/>
<path d="M0 0 C7.92 0 15.84 0 24 0 C24 15.84 24 31.68 24 48 C16.08 48 8.16 48 0 48 C0 32.16 0 16.32 0 0 Z " fill="#9BD1E9" transform="translate(232,143)"/>
<path d="M0 0 C0 15.84 0 31.68 0 48 C-7.92 48 -15.84 48 -24 48 C-24 32.49 -24 16.98 -24 1 C-1 0 -1 0 0 0 Z " fill="#C6E3EB" transform="translate(137,358)"/>
<path d="M0 0 C0.33 0 0.66 0 1 0 C1 7.59 1 15.18 1 23 C8.92 23 16.84 23 25 23 C25 15.41 25 7.82 25 0 C32.59 0 40.18 0 48 0 C48 15.51 48 31.02 48 47 C40.41 47 32.82 47 25 47 C25 39.41 25 31.82 25 24 C16.75 24 8.5 24 0 24 C0 16.08 0 8.16 0 0 Z " fill="#79ABCE" transform="translate(303,287)"/>
<path d="M0 0 C15.51 0 31.02 0 47 0 C47 7.92 47 15.84 47 24 C31.49 24 15.98 24 0 24 C0 16.08 0 8.16 0 0 Z " fill="#6F98C0" transform="translate(113,454)"/>
<path d="M0 0 C15.51 0 31.02 0 47 0 C47 7.92 47 15.84 47 24 C31.49 24 15.98 24 0 24 C0 16.08 0 8.16 0 0 Z " fill="#84B3D3" transform="translate(113,430)"/>
<path d="M0 0 C15.51 0 31.02 0 47 0 C47 7.92 47 15.84 47 24 C31.49 24 15.98 24 0 24 C0 16.08 0 8.16 0 0 Z " fill="#F1FEF5" transform="translate(18,406)"/>
<path d="M0 0 C7.92 0 15.84 0 24 0 C24 15.51 24 31.02 24 47 C16.08 47 8.16 47 0 47 C0 31.49 0 15.98 0 0 Z " fill="#8EC1E2" transform="translate(208,359)"/>
<path d="M0 0 C7.92 0 15.84 0 24 0 C24 15.51 24 31.02 24 47 C16.08 47 8.16 47 0 47 C0 31.49 0 15.98 0 0 Z " fill="#3F5C86" transform="translate(88,359)"/>
<path d="M0 0 C0.33 0 0.66 0 1 0 C1.23133013 23.6727837 0.54851457 47.33551446 0 71 C-7.59 71 -15.18 71 -23 71 C-23 55.16 -23 39.32 -23 23 C-15.41 23 -7.82 23 0 23 C0 15.41 0 7.82 0 0 Z " fill="#6A97BD" transform="translate(88,335)"/>
<path d="M0 0 C7.92 0 15.84 0 24 0 C24 15.51 24 31.02 24 47 C16.08 47 8.16 47 0 47 C0 31.49 0 15.98 0 0 Z " fill="#5179A9" transform="translate(208,120)"/>
<path d="M0 0 C0 0.33 0 0.66 0 1 C-7.92 1 -15.84 1 -24 1 C-24 8.59 -24 16.18 -24 24 C-39.36907861 24.76368092 -54.61226702 25.09557598 -70 25 C-70 17.08 -70 9.16 -70 1 C-46.66978519 -0.27836793 -23.35738022 -0.0964813 0 0 Z " fill="#B4D9E2" transform="translate(112,334)"/>
<path d="M0 0 C7.92 0 15.84 0 24 0 C24 15.51 24 31.02 24 47 C16.41 47 8.82 47 1 47 C0.21487775 31.29755503 -0.09303112 15.72225848 0 0 Z " fill="#E8F9EF" transform="translate(160,263)"/>
<path d="M0 0 C15.84 0 31.68 0 48 0 C48 7.59 48 15.18 48 23 C32.16 23 16.32 23 0 23 C0 15.41 0 7.82 0 0 Z " fill="#CBE6E8" transform="translate(232,478)"/>
<path d="M0 0 C15.51 0 31.02 0 47 0 C47 7.92 47 15.84 47 24 C31.2824673 24.09823458 15.70071184 23.74322896 0 23 C0 15.41 0 7.82 0 0 Z " fill="#5175A6" transform="translate(18,430)"/>
<path d="M0 0 C7.59 0 15.18 0 23 0 C23 15.84 23 31.68 23 48 C15.41 48 7.82 48 0 48 C0 32.16 0 16.32 0 0 Z " fill="#212C48" transform="translate(185,358)"/>
<path d="M0 0 C7.59 0 15.18 0 23 0 C23 15.84 23 31.68 23 48 C15.41 48 7.82 48 0 48 C0 32.16 0 16.32 0 0 Z " fill="#42648F" transform="translate(376,310)"/>
<path d="M0 0 C7.59 0 15.18 0 23 0 C23 15.84 23 31.68 23 48 C15.41 48 7.82 48 0 48 C0 32.16 0 16.32 0 0 Z " fill="#294066" transform="translate(113,310)"/>
<path d="M0 0 C7.59 0 15.18 0 23 0 C23 15.84 23 31.68 23 48 C15.41 48 7.82 48 0 48 C0 32.16 0 16.32 0 0 Z " fill="#4C6F9A" transform="translate(280,287)"/>
<path d="M0 0 C7.59 0 15.18 0 23 0 C23 15.51 23 31.02 23 47 C15.41 47 7.82 47 0 47 C0 31.49 0 15.98 0 0 Z " fill="#233B5C" transform="translate(400,359)"/>
<path d="M0 0 C7.59 0 15.18 0 23 0 C23 15.51 23 31.02 23 47 C15.41 47 7.82 47 0 47 C0 31.49 0 15.98 0 0 Z " fill="#F6FCF3" transform="translate(137,335)"/>
<path d="M0 0 C7.59 0 15.18 0 23 0 C23 15.51 23 31.02 23 47 C15.41 47 7.82 47 0 47 C0 31.49 0 15.98 0 0 Z " fill="#EBFCF4" transform="translate(280,239)"/>
<path d="M0 0 C7.59 0 15.18 0 23 0 C23 15.51 23 31.02 23 47 C15.41 47 7.82 47 0 47 C0 31.49 0 15.98 0 0 Z " fill="#C7E9EF" transform="translate(161,168)"/>
<path d="M0 0 C15.51 0 31.02 0 47 0 C46.67 7.59 46.34 15.18 46 23 C30.82 23 15.64 23 0 23 C0 15.41 0 7.82 0 0 Z " fill="#1E2944" transform="translate(66,478)"/>
<path d="M0 0 C7.59 0 15.18 0 23 0 C23 15.18 23 30.36 23 46 C15.74 46 8.48 46 1 46 C0.27685113 30.63308657 -0.10120199 15.38270243 0 0 Z " fill="#171C31" transform="translate(471,312)"/>
<path d="M0 0 C0.33 0 0.66 0 1 0 C1 133.98 1 267.96 1 406 C-6.92 406 -14.84 406 -23 406 C-23 413.26 -23 420.52 -23 428 C-23.33 428 -23.66 428 -24 428 C-24 420.08 -24 412.16 -24 404 C-16.41 404 -8.82 404 -1 404 C-1 372.98 -1 341.96 -1 310 C-16.51 310 -32.02 310 -48 310 C-48 309.67 -48 309.34 -48 309 C-32.49 309 -16.98 309 -1 309 C-1 293.49 -1 277.98 -1 262 C-8.59 262 -16.18 262 -24 262 C-24 261.67 -24 261.34 -24 261 C-16.08 261 -8.16 261 0 261 C0 174.87 0 88.74 0 0 Z " fill="#A3A6A8" transform="translate(495,49)"/>
<path d="M0 0 C0.33 0 0.66 0 1 0 C1 31.35 1 62.7 1 95 C-6.92 95 -14.84 95 -23 95 C-23 87.08 -23 79.16 -23 71 C-15.41 71 -7.82 71 0 71 C0 47.57 0 24.14 0 0 Z " fill="#699CBD" transform="translate(184,311)"/>
<path d="M0 0 C3.774375 -0.020625 7.54875 -0.04125 11.4375 -0.0625 C12.62915771 -0.071604 13.82081543 -0.08070801 15.04858398 -0.09008789 C16.44572632 -0.09383423 16.44572632 -0.09383423 17.87109375 -0.09765625 C18.82943115 -0.10289307 19.78776855 -0.10812988 20.77514648 -0.11352539 C23 0 23 0 24 1 C24.09432985 3.20867831 24.11742431 5.42041521 24.11352539 7.63110352 C24.11367142 8.32375305 24.11381744 9.01640259 24.1139679 9.7300415 C24.11326874 12.02969446 24.10547628 14.32926737 24.09765625 16.62890625 C24.09579208 18.21931412 24.09436817 19.80972257 24.09336853 21.40013123 C24.08954329 25.5939593 24.07971295 29.78775295 24.06866455 33.98156738 C24.05845057 38.25788914 24.05387094 42.53421644 24.04882812 46.81054688 C24.03809069 55.20704708 24.02101419 63.60351926 24 72 C23.67 72 23.34 72 23 72 C23 56.16 23 40.32 23 24 C15.41 24 7.82 24 0 24 C0 16.08 0 8.16 0 0 Z " fill="#C2E5E9" transform="translate(352,191)"/>
<path d="M0 0 C7.92 0 15.84 0 24 0 C24 7.92 24 15.84 24 24 C16.08 24 8.16 24 0 24 C0 16.08 0 8.16 0 0 Z " fill="#608EB3" transform="translate(423,430)"/>
<path d="M0 0 C7.92 0 15.84 0 24 0 C24 7.92 24 15.84 24 24 C16.08 24 8.16 24 0 24 C0 16.08 0 8.16 0 0 Z " fill="#8ABBDC" transform="translate(399,430)"/>
<path d="M0 0 C7.92 0 15.84 0 24 0 C24 7.92 24 15.84 24 24 C16.08 24 8.16 24 0 24 C0 16.08 0 8.16 0 0 Z " fill="#8EC2D5" transform="translate(256,382)"/>
<path d="M0 0 C7.92 0 15.84 0 24 0 C24 7.92 24 15.84 24 24 C16.08 24 8.16 24 0 24 C0 16.08 0 8.16 0 0 Z " fill="#D4EAEE" transform="translate(232,382)"/>
<path d="M0 0 C7.92 0 15.84 0 24 0 C24 7.92 24 15.84 24 24 C16.08 24 8.16 24 0 24 C0 16.08 0 8.16 0 0 Z " fill="#273756" transform="translate(208,334)"/>
<path d="M0 0 C7.92 0 15.84 0 24 0 C24 7.92 24 15.84 24 24 C16.08 24 8.16 24 0 24 C0 16.08 0 8.16 0 0 Z " fill="#BAE6E3" transform="translate(256,239)"/>
<path d="M0 0 C7.92 0 15.84 0 24 0 C24 7.92 24 15.84 24 24 C16.08 24 8.16 24 0 24 C0 16.08 0 8.16 0 0 Z " fill="#71A3CB" transform="translate(232,239)"/>
<path d="M0 0 C7.92 0 15.84 0 24 0 C24 7.92 24 15.84 24 24 C16.08 24 8.16 24 0 24 C0 16.08 0 8.16 0 0 Z " fill="#B3DCEC" transform="translate(208,239)"/>
<path d="M0 0 C7.92 0 15.84 0 24 0 C24 7.92 24 15.84 24 24 C16.08 24 8.16 24 0 24 C0 16.08 0 8.16 0 0 Z " fill="#579AD2" transform="translate(161,239)"/>
<path d="M0 0 C7.92 0 15.84 0 24 0 C24 7.92 24 15.84 24 24 C16.08 24 8.16 24 0 24 C0 16.08 0 8.16 0 0 Z " fill="#4B73A3" transform="translate(184,215)"/>
<path d="M0 0 C7.92 0 15.84 0 24 0 C24 7.92 24 15.84 24 24 C16.08 24 8.16 24 0 24 C0 16.08 0 8.16 0 0 Z " fill="#78C3E0" transform="translate(280,191)"/>
<path d="M0 0 C7.92 0 15.84 0 24 0 C24 7.92 24 15.84 24 24 C16.08 24 8.16 24 0 24 C0 16.08 0 8.16 0 0 Z " fill="#94C6E3" transform="translate(232,191)"/>
<path d="M0 0 C7.92 0 15.84 0 24 0 C24 7.92 24 15.84 24 24 C16.08 24 8.16 24 0 24 C0 16.08 0 8.16 0 0 Z " fill="#4870A0" transform="translate(208,167)"/>
<path d="M0 0 C7.92 0 15.84 0 24 0 C24 7.59 24 15.18 24 23 C16.08 23 8.16 23 0 23 C0 15.41 0 7.82 0 0 Z " fill="#344C72" transform="translate(303,478)"/>
<path d="M0 0 C7.92 0 15.84 0 24 0 C24 7.59 24 15.18 24 23 C16.08 23 8.16 23 0 23 C0 15.41 0 7.82 0 0 Z " fill="#A8CEE1" transform="translate(232,478)"/>
<path d="M0 0 C7.92 0 15.84 0 24 0 C24 7.59 24 15.18 24 23 C16.08 23 8.16 23 0 23 C0 15.41 0 7.82 0 0 Z " fill="#3A5788" transform="translate(208,478)"/>
<path d="M0 0 C7.92 0 15.84 0 24 0 C24 7.59 24 15.18 24 23 C16.08 23 8.16 23 0 23 C0 15.41 0 7.82 0 0 Z " fill="#304464" transform="translate(184,478)"/>
<path d="M0 0 C7.59 0 15.18 0 23 0 C23 7.92 23 15.84 23 24 C15.41 24 7.82 24 0 24 C0 16.08 0 8.16 0 0 Z " fill="#52749F" transform="translate(400,454)"/>
<path d="M0 0 C7.59 0 15.18 0 23 0 C23 7.92 23 15.84 23 24 C15.41 24 7.82 24 0 24 C0 16.08 0 8.16 0 0 Z " fill="#B1E0E9" transform="translate(376,430)"/>
<path d="M0 0 C7.59 0 15.18 0 23 0 C23 7.92 23 15.84 23 24 C15.41 24 7.82 24 0 24 C0 16.08 0 8.16 0 0 Z " fill="#ADD6E6" transform="translate(113,430)"/>
<path d="M0 0 C7.59 0 15.18 0 23 0 C23 7.92 23 15.84 23 24 C15.41 24 7.82 24 0 24 C0 16.08 0 8.16 0 0 Z " fill="#81B2D6" transform="translate(65,430)"/>
<path d="M0 0 C7.59 0 15.18 0 23 0 C23 7.92 23 15.84 23 24 C15.41 24 7.82 24 0 24 C0 16.08 0 8.16 0 0 Z " fill="#E2F5F1" transform="translate(18,406)"/>
<path d="M0 0 C7.59 0 15.18 0 23 0 C23 7.92 23 15.84 23 24 C15.41 24 7.82 24 0 24 C0 16.08 0 8.16 0 0 Z " fill="#B0D7F0" transform="translate(471,382)"/>
<path d="M0 0 C7.59 0 15.18 0 23 0 C23 7.92 23 15.84 23 24 C15.41 24 7.82 24 0 24 C0 16.08 0 8.16 0 0 Z " fill="#90C4E4" transform="translate(352,382)"/>
<path d="M0 0 C7.59 0 15.18 0 23 0 C23 7.92 23 15.84 23 24 C15.41 24 7.82 24 0 24 C0 16.08 0 8.16 0 0 Z " fill="#3A537B" transform="translate(328,382)"/>
<path d="M0 0 C7.59 0 15.18 0 23 0 C23 7.92 23 15.84 23 24 C15.41 24 7.82 24 0 24 C0 16.08 0 8.16 0 0 Z " fill="#AFDAEB" transform="translate(113,382)"/>
<path d="M0 0 C7.59 0 15.18 0 23 0 C23 7.92 23 15.84 23 24 C15.41 24 7.82 24 0 24 C0 16.08 0 8.16 0 0 Z " fill="#1E2C47" transform="translate(89,382)"/>
<path d="M0 0 C7.59 0 15.18 0 23 0 C23 7.92 23 15.84 23 24 C15.41 24 7.82 24 0 24 C0 16.08 0 8.16 0 0 Z " fill="#6385B3" transform="translate(65,382)"/>
<path d="M0 0 C7.59 0 15.18 0 23 0 C23 7.92 23 15.84 23 24 C15.41 24 7.82 24 0 24 C0 16.08 0 8.16 0 0 Z " fill="#9ACAE5" transform="translate(18,382)"/>
<path d="M0 0 C7.92 0 15.84 0 24 0 C24 7.59 24 15.18 24 23 C16.08 23 8.16 23 0 23 C0 15.41 0 7.82 0 0 Z " fill="#CCEEF2" transform="translate(423,359)"/>
<path d="M0 0 C7.92 0 15.84 0 24 0 C24 7.59 24 15.18 24 23 C16.08 23 8.16 23 0 23 C0 15.41 0 7.82 0 0 Z " fill="#AFDDE9" transform="translate(208,359)"/>
<path d="M0 0 C7.59 0 15.18 0 23 0 C23 7.92 23 15.84 23 24 C15.41 24 7.82 24 0 24 C0 16.08 0 8.16 0 0 Z " fill="#2F3C5A" transform="translate(185,358)"/>
<path d="M0 0 C7.59 0 15.18 0 23 0 C23 7.92 23 15.84 23 24 C15.41 24 7.82 24 0 24 C0 16.08 0 8.16 0 0 Z " fill="#95BED7" transform="translate(161,358)"/>
<path d="M0 0 C7.59 0 15.18 0 23 0 C23 7.92 23 15.84 23 24 C15.41 24 7.82 24 0 24 C0 16.08 0 8.16 0 0 Z " fill="#D6EEED" transform="translate(42,335)"/>
<path d="M0 0 C7.59 0 15.18 0 23 0 C23 7.92 23 15.84 23 24 C15.41 24 7.82 24 0 24 C0 16.08 0 8.16 0 0 Z " fill="#A9D1E1" transform="translate(161,334)"/>
<path d="M0 0 C7.59 0 15.18 0 23 0 C23 7.92 23 15.84 23 24 C15.41 24 7.82 24 0 24 C0 16.08 0 8.16 0 0 Z " fill="#C9EAEE" transform="translate(400,334)"/>
<path d="M0 0 C7.59 0 15.18 0 23 0 C23 7.92 23 15.84 23 24 C15.41 24 7.82 24 0 24 C0 16.08 0 8.16 0 0 Z " fill="#4777A2" transform="translate(376,310)"/>
<path d="M0 0 C7.92 0 15.84 0 24 0 C24 7.59 24 15.18 24 23 C16.08 23 8.16 23 0 23 C0 15.41 0 7.82 0 0 Z " fill="#6591B7" transform="translate(304,311)"/>
<path d="M0 0 C7.92 0 15.84 0 24 0 C24 7.59 24 15.18 24 23 C16.08 23 8.16 23 0 23 C0 15.41 0 7.82 0 0 Z " fill="#394C6F" transform="translate(208,311)"/>
<path d="M0 0 C7.59 0 15.18 0 23 0 C23 7.92 23 15.84 23 24 C15.41 24 7.82 24 0 24 C0 16.08 0 8.16 0 0 Z " fill="#334B71" transform="translate(113,310)"/>
<path d="M0 0 C7.59 0 15.18 0 23 0 C23 7.92 23 15.84 23 24 C15.41 24 7.82 24 0 24 C0 16.08 0 8.16 0 0 Z " fill="#689FC5" transform="translate(376,286)"/>
<path d="M0 0 C7.59 0 15.18 0 23 0 C23 7.92 23 15.84 23 24 C15.41 24 7.82 24 0 24 C0 16.08 0 8.16 0 0 Z " fill="#42618D" transform="translate(113,286)"/>
<path d="M0 0 C7.92 0 15.84 0 24 0 C24 7.59 24 15.18 24 23 C16.08 23 8.16 23 0 23 C0 15.41 0 7.82 0 0 Z " fill="#426393" transform="translate(208,263)"/>
<path d="M0 0 C7.59 0 15.18 0 23 0 C23 7.92 23 15.84 23 24 C15.41 24 7.82 24 0 24 C0 16.08 0 8.16 0 0 Z " fill="#628DB7" transform="translate(185,239)"/>
<path d="M0 0 C7.59 0 15.18 0 23 0 C23 7.92 23 15.84 23 24 C15.41 24 7.82 24 0 24 C0 16.08 0 8.16 0 0 Z " fill="#A1CFE4" transform="translate(352,215)"/>
<path d="M0 0 C7.59 0 15.18 0 23 0 C23 7.92 23 15.84 23 24 C15.41 24 7.82 24 0 24 C0 16.08 0 8.16 0 0 Z " fill="#F3FEF3" transform="translate(280,215)"/>
<path d="M0 0 C7.59 0 15.18 0 23 0 C23 7.92 23 15.84 23 24 C15.41 24 7.82 24 0 24 C0 16.08 0 8.16 0 0 Z " fill="#6E9BC9" transform="translate(137,215)"/>
<path d="M0 0 C7.59 0 15.18 0 23 0 C23 7.92 23 15.84 23 24 C15.41 24 7.82 24 0 24 C0 16.08 0 8.16 0 0 Z " fill="#6FA6BF" transform="translate(328,191)"/>
<path d="M0 0 C7.59 0 15.18 0 23 0 C23 7.92 23 15.84 23 24 C15.41 24 7.82 24 0 24 C0 16.08 0 8.16 0 0 Z " fill="#7FAED7" transform="translate(137,191)"/>
<path d="M0 0 C7.59 0 15.18 0 23 0 C23 7.92 23 15.84 23 24 C15.41 24 7.82 24 0 24 C0 16.08 0 8.16 0 0 Z " fill="#D1F7EA" transform="translate(65,191)"/>
<path d="M0 0 C7.59 0 15.18 0 23 0 C23 7.92 23 15.84 23 24 C15.41 24 7.82 24 0 24 C0 16.08 0 8.16 0 0 Z " fill="#5C84B4" transform="translate(185,167)"/>
<path d="M0 0 C7.59 0 15.18 0 23 0 C23 7.92 23 15.84 23 24 C15.41 24 7.82 24 0 24 C0 16.08 0 8.16 0 0 Z " fill="#BFE2E9" transform="translate(185,143)"/>
<path d="M0 0 C7.92 0 15.84 0 24 0 C24 7.59 24 15.18 24 23 C16.08 23 8.16 23 0 23 C0 15.41 0 7.82 0 0 Z " fill="#6A93BE" transform="translate(208,120)"/>
<path d="M0 0 C7.59 0 15.18 0 23 0 C23 7.59 23 15.18 23 23 C15.41 23 7.82 23 0 23 C0 15.41 0 7.82 0 0 Z " fill="#233B5C" transform="translate(423,478)"/>
<path d="M0 0 C7.59 0 15.18 0 23 0 C23 7.59 23 15.18 23 23 C15.41 23 7.82 23 0 23 C0 15.41 0 7.82 0 0 Z " fill="#7CA6C8" transform="translate(280,478)"/>
<path d="M0 0 C7.59 0 15.18 0 23 0 C23 7.59 23 15.18 23 23 C15.41 23 7.82 23 0 23 C0 15.41 0 7.82 0 0 Z " fill="#45709A" transform="translate(447,454)"/>
<path d="M0 0 C7.59 0 15.18 0 23 0 C23 7.59 23 15.18 23 23 C15.41 23 7.82 23 0 23 C0 15.41 0 7.82 0 0 Z " fill="#2E4168" transform="translate(42,454)"/>
<path d="M0 0 C7.59 0 15.18 0 23 0 C23 7.59 23 15.18 23 23 C15.41 23 7.82 23 0 23 C0 15.41 0 7.82 0 0 Z " fill="#73BBDB" transform="translate(471,430)"/>
<path d="M0 0 C7.59 0 15.18 0 23 0 C23 7.59 23 15.18 23 23 C15.41 23 7.82 23 0 23 C0 15.41 0 7.82 0 0 Z " fill="#375D8C" transform="translate(18,430)"/>
<path d="M0 0 C7.59 0 15.18 0 23 0 C23 7.59 23 15.18 23 23 C15.41 23 7.82 23 0 23 C0 15.41 0 7.82 0 0 Z " fill="#EDFFFE" transform="translate(471,359)"/>
<path d="M0 0 C7.59 0 15.18 0 23 0 C23 7.59 23 15.18 23 23 C15.41 23 7.82 23 0 23 C0 15.41 0 7.82 0 0 Z " fill="#45709A" transform="translate(400,359)"/>
<path d="M0 0 C7.59 0 15.18 0 23 0 C23 7.59 23 15.18 23 23 C15.41 23 7.82 23 0 23 C0 15.41 0 7.82 0 0 Z " fill="#A4CEE2" transform="translate(352,359)"/>
<path d="M0 0 C7.59 0 15.18 0 23 0 C23 7.59 23 15.18 23 23 C15.41 23 7.82 23 0 23 C0 15.41 0 7.82 0 0 Z " fill="#34496D" transform="translate(304,359)"/>
<path d="M0 0 C7.59 0 15.18 0 23 0 C23 7.59 23 15.18 23 23 C15.41 23 7.82 23 0 23 C0 15.41 0 7.82 0 0 Z " fill="#E9F8EE" transform="translate(137,359)"/>
<path d="M0 0 C7.59 0 15.18 0 23 0 C23 7.59 23 15.18 23 23 C15.41 23 7.82 23 0 23 C0 15.41 0 7.82 0 0 Z " fill="#3F5B86" transform="translate(280,335)"/>
<path d="M0 0 C7.59 0 15.18 0 23 0 C23 7.59 23 15.18 23 23 C15.41 23 7.82 23 0 23 C0 15.41 0 7.82 0 0 Z " fill="#49648D" transform="translate(185,311)"/>
<path d="M0 0 C7.59 0 15.18 0 23 0 C23 7.59 23 15.18 23 23 C15.41 23 7.82 23 0 23 C0 15.41 0 7.82 0 0 Z " fill="#585D67" transform="translate(423,287)"/>
<path d="M0 0 C7.59 0 15.18 0 23 0 C23 7.59 23 15.18 23 23 C15.41 23 7.82 23 0 23 C0 15.41 0 7.82 0 0 Z " fill="#8CBED8" transform="translate(328,287)"/>
<path d="M0 0 C7.59 0 15.18 0 23 0 C23 7.59 23 15.18 23 23 C15.41 23 7.82 23 0 23 C0 15.41 0 7.82 0 0 Z " fill="#AFDBE5" transform="translate(304,287)"/>
<path d="M0 0 C7.59 0 15.18 0 23 0 C23 7.59 23 15.18 23 23 C15.41 23 7.82 23 0 23 C0 15.41 0 7.82 0 0 Z " fill="#5984B1" transform="translate(280,287)"/>
<path d="M0 0 C7.59 0 15.18 0 23 0 C23 7.59 23 15.18 23 23 C15.41 23 7.82 23 0 23 C0 15.41 0 7.82 0 0 Z " fill="#B2DEE8" transform="translate(328,263)"/>
<path d="M0 0 C7.59 0 15.18 0 23 0 C23 7.59 23 15.18 23 23 C15.41 23 7.82 23 0 23 C0 15.41 0 7.82 0 0 Z " fill="#DBFFFF" transform="translate(280,263)"/>
<path d="M0 0 C7.59 0 15.18 0 23 0 C23 7.59 23 15.18 23 23 C15.41 23 7.82 23 0 23 C0 15.41 0 7.82 0 0 Z " fill="#F8FFF3" transform="translate(161,263)"/>
<path d="M0 0 C7.59 0 15.18 0 23 0 C23 7.59 23 15.18 23 23 C15.41 23 7.82 23 0 23 C0 15.41 0 7.82 0 0 Z " fill="#FAFEF2" transform="translate(352,144)"/>
<path d="M0 0 C7.59 0 15.18 0 23 0 C23 7.59 23 15.18 23 23 C15.41 23 7.82 23 0 23 C0 15.41 0 7.82 0 0 Z " fill="#CEE9EB" transform="translate(137,144)"/>
<path d="M0 0 C7.59 0 15.18 0 23 0 C23 7.59 23 15.18 23 23 C15.41 23 7.82 23 0 23 C0 15.41 0 7.82 0 0 Z " fill="#E8FBF5" transform="translate(400,96)"/>
<path d="M0 0 C7.26 0 14.52 0 22 0 C22 7.92 22 15.84 22 24 C14.74 24 7.48 24 0 24 C0 16.08 0 8.16 0 0 Z " fill="#8BBBDF" transform="translate(472,286)"/>
<path d="M0 0 C7.26 0 14.52 0 22 0 C22 7.92 22 15.84 22 24 C14.74 24 7.48 24 0 24 C0 16.08 0 8.16 0 0 Z " fill="#8BBBDF" transform="translate(18,286)"/>
<path d="M0 0 C7.26 0 14.52 0 22 0 C22 7.92 22 15.84 22 24 C14.74 24 7.48 24 0 24 C0 16.08 0 8.16 0 0 Z " fill="#C8E7ED" transform="translate(472,215)"/>
<path d="M0 0 C7.26 0 14.52 0 22 0 C22 7.92 22 15.84 22 24 C14.74 24 7.48 24 0 24 C0 16.08 0 8.16 0 0 Z " fill="#C8E7ED" transform="translate(18,215)"/>
<path d="M0 0 C7.26 0 14.52 0 22 0 C22 7.59 22 15.18 22 23 C14.74 23 7.48 23 0 23 C0 15.41 0 7.82 0 0 Z " fill="#A2CEE6" transform="translate(472,263)"/>
<path d="M0 0 C7.26 0 14.52 0 22 0 C22 7.59 22 15.18 22 23 C14.74 23 7.48 23 0 23 C0 15.41 0 7.82 0 0 Z " fill="#A2CEE6" transform="translate(18,263)"/>
<path d="M0 0 C0.33 0 0.66 0 1 0 C1 15.51 1 31.02 1 47 C8.26 47 15.52 47 23 47 C23 39.08 23 31.16 23 23 C23.33 23 23.66 23 24 23 C24 31.25 24 39.5 24 48 C16.08 48 8.16 48 0 48 C0.03029297 50.030354 0.06058594 52.06070801 0.09179688 54.15258789 C0.19313735 60.96172659 0.29257706 67.77089217 0.39115143 74.58007145 C0.45080457 78.69686788 0.51104183 82.8136538 0.57275391 86.93041992 C0.84753102 105.28885721 1.06242646 123.63881872 1 142 C8.92 142 16.84 142 25 142 C25 149.92 25 157.84 25 166 C32.59 166 40.18 166 48 166 C48 166.33 48 166.66 48 167 C35.625 167.495 35.625 167.495 23 168 C23 160.08 23 152.16 23 144 C15.08 144 7.16 144 -1 144 C-1.02302145 132.1644951 -1.0411774 120.32900618 -1.05181217 108.49348354 C-1.05692826 102.99182206 -1.06380695 97.49017726 -1.07543945 91.98852539 C-1.13859666 61.31144557 -0.79604889 30.66707778 0 0 Z " fill="#8F9298" transform="translate(17,311)"/>
<path d="M0 0 C0.33 0 0.66 0 1 0 C1 15.51 1 31.02 1 47 C8.59 47 16.18 47 24 47 C24 47.33 24 47.66 24 48 C16.41 48 8.82 48 1 48 C1 63.51 1 79.02 1 95 C0.67 95 0.34 95 0 95 C0 79.49 0 63.98 0 48 C-7.59 48 -15.18 48 -23 48 C-23 47.67 -23 47.34 -23 47 C-15.41 47 -7.82 47 0 47 C0 31.49 0 15.98 0 0 Z " fill="#91ACC0" transform="translate(399,311)"/>
<path d="M0 0 C0.33 0 0.66 0 1 0 C1 7.26 1 14.52 1 22 C8.59 22 16.18 22 24 22 C24 22.33 24 22.66 24 23 C16.41 23 8.82 23 1 23 C1 38.51 1 54.02 1 70 C0.67 70 0.34 70 0 70 C0 54.49 0 38.98 0 23 C-7.59 23 -15.18 23 -23 23 C-23 22.67 -23 22.34 -23 22 C-15.41 22 -7.82 22 0 22 C0 14.74 0 7.48 0 0 Z " fill="#5E7A9B" transform="translate(112,336)"/>
<path d="M0 0 C0.33 0 0.66 0 1 0 C1.33 8.25 1.66 16.5 2 25 C-6.25 25 -14.5 25 -23 25 C-23 24.34 -23 23.68 -23 23 C-15.41 23 -7.82 23 0 23 C0 15.41 0 7.82 0 0 Z " fill="#9099A2" transform="translate(470,454)"/>
</svg>
